<svg width="56" height="50" viewBox="0 0 56 50" fill="none" xmlns="http://www.w3.org/2000/svg">
<g clip-path="url(#clip0)">
<path fill-rule="evenodd" clip-rule="evenodd" d="M36.885 35.6364C31.8249 35.6364 31.0648 31.3123 27.4592 27.733C23.8017 24.1017 21.5491 24.553 22.1738 18.4887C31.5627 13.1518 39.7333 6.48433 48.072 0C51.0265 0.814658 51.4557 4.38991 52.8288 6.93326C51.3484 7.24063 50.0809 7.78143 48.6005 8.0888C47.8733 9.83772 48.8526 10.1526 48.6005 12.711C47.3453 13.6614 46.3284 10.4894 44.3722 10.3999C45.6238 11.9206 47.3442 12.9288 47.5435 15.5998C47.2903 18.2119 45.3891 19.0225 44.3722 20.7998C44.1408 26.4452 45.044 30.8501 46.4864 34.6663C46.0932 35.9697 43.5218 34.8922 42.2581 35.2441C41.2528 34.5906 41.2174 32.0201 38.5584 31.7774C37.0473 28.9204 38.7492 25.2278 39.0869 22.5331C37.2413 21.5526 34.8179 24.2213 31.6874 23.6886C32.8344 28.2126 36.0246 30.8946 37.9632 32.9393C38.5795 33.5893 39.8639 33.5414 39.8432 34.3843C39.8147 35.5393 37.81 35.6364 36.885 35.6364Z" fill="#F17C10"/>
<path fill-rule="evenodd" clip-rule="evenodd" d="M49.1291 8.66659C50.0556 8.13851 51.7664 8.46784 52.3003 7.51105C52.6306 10.0977 54.3917 16.6121 49.1291 15.5998C47.7797 13.7036 49.7459 11.5693 49.1291 8.66659Z" fill="#F17C10"/>
<path fill-rule="evenodd" clip-rule="evenodd" d="M48.072 16.1776C49.0197 16.1042 49.1867 16.8854 50.1861 16.7554C51.4192 23.3038 54.9472 27.3436 56 34.0885C54.9398 35.8184 51.6613 35.1233 49.1291 35.2441C49.1365 34.096 50.5714 34.5097 50.1861 32.933C46.821 30.8339 48.0635 23.6979 45.4293 20.7998C45.9653 18.8816 48.3548 18.9902 48.072 16.1776Z" fill="#F17C10"/>
<path fill-rule="evenodd" clip-rule="evenodd" d="M24.5522 19.4513C28.6537 19.5899 26.1452 32.0582 27.9877 34.6663C26.6315 35.734 21.983 35.4746 20.5882 34.6663C20.8393 31.0893 23.8059 22.4875 24.5522 19.4513Z" fill="#F17C10"/>
</g>
<g clip-path="url(#clip1)">
<path fill-rule="evenodd" clip-rule="evenodd" d="M18.5708 40C12.8045 40 11.9385 35.1465 7.82968 31.1289C3.66188 27.053 1.09495 27.5595 1.80685 20.7526C12.5058 14.7622 21.8165 7.27833 31.3187 0C34.6855 0.914412 35.1745 4.92745 36.7393 7.78223C35.0523 8.12724 33.608 8.73425 31.921 9.07927C31.0923 11.0423 32.2083 11.3958 31.921 14.2674C30.4906 15.3342 29.3318 11.7739 27.1027 11.6733C28.5289 13.3802 30.4894 14.5119 30.7164 17.51C30.4279 20.442 28.2615 21.3518 27.1027 23.3467C26.8389 29.6834 27.8682 34.6277 29.5119 38.9111C29.0638 40.3742 26.1337 39.1647 24.6936 39.5597C23.5481 38.8262 23.5077 35.9409 20.4776 35.6685C18.7557 32.4616 20.695 28.3169 21.0799 25.2922C18.9767 24.1917 16.2153 27.1872 12.6479 26.5893C13.9549 31.6672 17.5903 34.6776 19.7994 36.9727C20.5017 37.7023 21.9653 37.6485 21.9418 38.5947C21.9092 39.8911 19.6248 40 18.5708 40Z" fill="#F6D62B"/>
<path fill-rule="evenodd" clip-rule="evenodd" d="M32.5233 9.72776C33.5791 9.13502 35.5287 9.50467 36.137 8.43073C36.5134 11.3341 38.5202 18.6462 32.5233 17.51C30.9856 15.3816 33.2261 12.9859 32.5233 9.72776Z" fill="#F6D62B"/>
<path fill-rule="evenodd" clip-rule="evenodd" d="M31.3187 18.1585C32.3986 18.0762 32.5889 18.953 33.7278 18.807C35.133 26.1573 39.1532 30.6918 40.3529 38.2626C39.1448 40.2043 35.4088 39.4241 32.5233 39.5596C32.5317 38.271 34.1669 38.7354 33.7278 36.9656C29.8931 34.6095 31.3091 26.5996 28.3073 23.3467C28.918 21.1936 31.6409 21.3155 31.3187 18.1585Z" fill="#F6D62B"/>
<path fill-rule="evenodd" clip-rule="evenodd" d="M4.51712 21.833C9.19084 21.9887 6.3324 35.9837 8.43196 38.9111C6.8865 40.1096 1.58942 39.8184 0 38.9111C0.286084 34.8962 3.6667 25.241 4.51712 21.833Z" fill="#F6D62B"/>
</g>
<defs>
<clipPath id="clip0">
<rect x="20.5882" width="35.4118" height="44.5455" fill="white"/>
</clipPath>
<clipPath id="clip1">
<rect width="40.353" height="50" fill="white"/>
</clipPath>
</defs>
</svg>
